<?xml version="1.0" standalone="no"?><!DOCTYPE svg PUBLIC "-//W3C//DTD SVG 1.1//EN" "http://www.w3.org/Graphics/SVG/1.1/DTD/svg11.dtd"><svg t="1541759668032" class="icon" style="" viewBox="0 0 1024 1024" version="1.1" xmlns="http://www.w3.org/2000/svg" p-id="1887" xmlns:xlink="http://www.w3.org/1999/xlink" width="200" height="200"><defs><style type="text/css"></style></defs><path d="M515.069851 833.362246c-179.279304 0-346.58619-96.495653-436.430499-251.932447-9.721195-16.884181-3.990806-38.475467 12.893375-48.196662s38.475467-3.990806 48.196662 12.893374c77.360248 133.640851 221.131608 216.62916 375.340462 216.62916 154.208854 0 298.082542-82.988308 375.340462-216.62916 9.721195-16.884181 31.312481-22.61457 48.196662-12.893374 16.884181 9.721195 22.61457 31.312481 12.893375 48.196662-89.844309 155.436794-257.151194 251.932447-436.430499 251.932447zM921.006495 486.264415c-12.177076 0-24.047167-6.344359-30.596182-17.60048C813.050065 335.023084 669.278705 252.034776 515.069851 252.034776c-154.208854 0-297.980214 82.988308-375.340462 216.629159-9.721195 16.884181-31.312481 22.61457-48.196662 12.893375-16.884181-9.721195-22.61457-31.312481-12.893375-48.196662C168.483661 277.923853 335.790547 181.4282 515.069851 181.4282s346.58619 96.495653 436.430499 251.932448c9.721195 16.884181 3.990806 38.475467-12.893375 48.196662-5.525732 3.172179-11.665434 4.707105-17.60048 4.707105z" p-id="1888" fill="#737579"></path><path d="M515.069851 700.437694c-105.295893 0-190.84241-85.648846-190.84241-190.842411s85.648846-190.84241 190.84241-190.84241 190.84241 85.648846 190.84241 190.84241-85.546517 190.84241-190.84241 190.842411z m0-311.180574c-66.308784 0-120.338163 53.927051-120.338163 120.338163s53.927051 120.338163 120.338163 120.338164S635.408014 575.904067 635.408014 509.595283s-54.029379-120.338163-120.338163-120.338163z" p-id="1889" fill="#737579"></path></svg>