<?xml version="1.0" standalone="no"?><!DOCTYPE svg PUBLIC "-//W3C//DTD SVG 1.1//EN" "http://www.w3.org/Graphics/SVG/1.1/DTD/svg11.dtd"><svg class="icon" width="200px" height="200.00px" viewBox="0 0 1024 1024" version="1.1" xmlns="http://www.w3.org/2000/svg"><path fill="#ffffff" d="M870.093413 512c-16.481086 0-29.841118 13.360032-29.841118 29.841118l0 332.624224c0 14.004886-11.514379 25.46919-25.645988 25.46919l-664.89485 0c-14.124455 0-25.645988-11.53584-25.645988-25.645988l0-664.89485c0-14.203146 11.433645-25.645988 25.665405-25.645988L482.158882 183.747705c16.481086 0 29.841118-13.360032 29.841118-29.841118s-13.360032-29.841118-29.841118-29.841118L149.730874 124.065469C102.525701 124.065469 64.383234 162.240639 64.383234 209.393693l0 664.89485C64.383234 921.345533 102.610523 959.616766 149.711457 959.616766l664.89485 0c47.035529 0 85.328224-38.126116 85.328224-85.151425L899.934531 541.841118C899.934531 525.360032 886.574499 512 870.093413 512zM930.546204 93.428248c-38.721916-38.721916-101.637621-38.736224-140.391218 0.016351L290.569709 593.029876l-3.154778 3.154778-1.703601 4.122571-56.258683 136.124551c-16.928703 40.96 11.810747 70.758196 53.260263 55.097741l140.315593-53.013972 4.507848-1.703601 3.407202-3.407202 499.585277-499.585277C969.305932 195.042363 969.313086 132.194108 930.546204 93.428248zM402.699752 698.345517l-129.257006 48.836216 51.931721-125.654611 2.655042-2.655042 77.07184 77.07184L402.699752 698.345517zM436.753373 664.292918l-77.07184-77.07184 366.434619-366.434619 77.07184 77.07184L436.753373 664.292918zM898.877828 202.167441l-64.039856 64.039856-77.07184-77.07184 64.039856-64.039856c21.26895-21.26895 55.843768-21.261796 77.088192-0.016351C920.179481 146.363529 920.176415 180.869876 898.877828 202.167441z" /></svg>