<?xml version="1.0" standalone="no"?><!DOCTYPE svg PUBLIC "-//W3C//DTD SVG 1.1//EN" "http://www.w3.org/Graphics/SVG/1.1/DTD/svg11.dtd"><svg class="icon" width="200px" height="185.84px" viewBox="0 0 1102 1024" version="1.1" xmlns="http://www.w3.org/2000/svg"><path fill="#333333" d="M951.644472 499.48147a49.995387 49.995387 0 0 0-50.07412 50.07412l0.314932 257.850223c-1.10226 74.008919-19.289559 92.668614-101.722897 92.668614l101.171766-0.708596 0.708597-91.802553v92.511149l-801.500846 0.393665v-1.102261l100.935568 0.708596c-75.347378 0-97.077656-15.51038-101.171767-74.638782L99.990773 154.395202l1.102261 45.980009c0-73.693987 12.912194-96.290328 80.858681-99.439643l670.095648-0.393664a49.995387 49.995387 0 1 0 0-100.069507L90.700292 0.866062A99.990773 99.990773 0 0 0 0 98.652314l0.393664 810.633862c4.881439 50.703983 47.475934 90.542826 99.675842 90.542826h53.144703v0.393664l694.817776-0.393664h53.144703a99.990773 99.990773 0 0 0 100.226972-99.754575v-50.074119h0.393664V549.55559a50.231585 50.231585 0 0 0-50.152852-50.07412zM100.226972 100.935568h31.493157-31.493157z m981.562971 16.927572a69.67861 69.67861 0 0 0-98.573581 0L419.646317 682.377979a69.284945 69.284945 0 0 0 0 98.337383 69.757343 69.757343 0 0 0 98.652314 0l563.491312-564.514839a69.284945 69.284945 0 0 0 0-98.337383z" /></svg>