<?xml version="1.0" standalone="no"?><!DOCTYPE svg PUBLIC "-//W3C//DTD SVG 1.1//EN" "http://www.w3.org/Graphics/SVG/1.1/DTD/svg11.dtd"><svg class="icon" width="200px" height="200.00px" viewBox="0 0 1024 1024" version="1.1" xmlns="http://www.w3.org/2000/svg"><path fill="#333333" d="M849.408 590.848v262.656c0 58.88-48.128 107.008-107.008 107.008h-535.04c-58.88 0-107.008-48.128-107.008-107.008V172.032c0-58.88 48.128-107.008 107.008-107.008H742.4c58.88 0 107.008 48.128 107.008 107.008v160.256h39.936v-174.08c0-73.728-59.904-133.632-133.632-133.632h-561.664c-73.728 0-133.632 59.904-133.632 133.632v708.608c0 73.728 59.904 133.632 133.632 133.632H755.712c73.728 0 133.632-59.904 133.632-133.632v-280.576h-39.936v4.608z m-147.456-298.496h-454.656v39.936h454.656v-39.936z m0 214.016h-454.656v39.936h454.656v-39.936z m-454.656 253.952h214.016v-39.936h-214.016v39.936z m400.384-33.28l316.928-331.776-28.672-28.16-316.928 331.776 28.672 28.16z"  /></svg>