<?xml version="1.0" standalone="no"?><!DOCTYPE svg PUBLIC "-//W3C//DTD SVG 1.1//EN" "http://www.w3.org/Graphics/SVG/1.1/DTD/svg11.dtd"><svg class="icon" width="200px" height="200.00px" viewBox="0 0 1024 1024" version="1.1" xmlns="http://www.w3.org/2000/svg"><path fill="#F55D54" d="M300.552 796.586q0 30.284-21.427 51.711t-51.711 21.427q-29.712 0-51.425-21.713t-21.713-51.425q0-30.284 21.427-51.711t51.711-21.427 51.711 21.427 21.427 51.711z m284.553 117.707q0 30.284-21.427 51.71t-51.71 21.428-51.712-21.427-21.427-51.711 21.427-51.711 51.711-21.427 51.711 21.427 21.427 51.71z m-402.26-402.26q0 30.284-21.427 51.71t-51.71 21.428-51.712-21.427-21.427-51.711 21.427-51.711 51.711-21.427 51.711 21.427 21.427 51.71zM869.66 796.586q0 29.712-21.713 51.425t-51.426 21.713q-30.283 0-51.71-21.427t-21.428-51.711 21.427-51.711 51.711-21.427 51.711 21.427 21.428 51.711zM318.837 227.48q0 37.711-26.856 64.567t-64.567 26.855-64.567-26.855-26.856-64.567 26.856-64.568 64.567-26.855 64.567 26.855 26.856 64.568z m668.528 284.553q0 30.284-21.427 51.71t-51.71 21.428-51.712-21.427-21.427-51.711 21.427-51.711 51.711-21.427 51.711 21.427 21.427 51.71z m-365.69-402.26q0 45.711-31.998 77.71t-77.71 31.997-77.71-31.998-31.997-77.71 31.998-77.709T511.968 0.066t77.709 31.997 31.997 77.71zM924.511 227.48q0 53.139-37.712 90.565t-90.28 37.426q-53.139 0-90.565-37.426t-37.426-90.565q0-52.569 37.426-90.28t90.565-37.712q52.569 0 90.28 37.712t37.712 90.28z" /></svg>