<?xml version="1.0" standalone="no"?><!DOCTYPE svg PUBLIC "-//W3C//DTD SVG 1.1//EN" "http://www.w3.org/Graphics/SVG/1.1/DTD/svg11.dtd"><svg t="1536224569999" class="icon" style="" viewBox="0 0 1024 1024" version="1.1" xmlns="http://www.w3.org/2000/svg" p-id="2049" xmlns:xlink="http://www.w3.org/1999/xlink" width="200" height="200"><defs><style type="text/css"></style></defs><path d="M872.329623 147.671158C776.348369 52.389768 649.773091 0.09998 515.399336 0.09998H511.90002c-138.472955 0.999805-267.647725 54.589338-363.82894 150.970514C51.889865 247.351689-0.599883 375.626635 0.09998 512.199961c1.599688 282.144894 231.254833 511.800039 511.90002 511.800039 282.244874 0 511.90002-229.655145 511.90002-511.90002 0-137.873072-53.889475-267.347784-151.570397-364.428822z m-360.329623 661.870728c-28.294474 0-51.190002-22.895528-51.190002-51.190002 0-28.294474 22.895528-51.190002 51.190002-51.190002 28.294474 0 51.190002 22.895528 51.190002 51.190002 0 28.194493-22.895528 51.190002-51.190002 51.190002z m40.991994-181.664518c0 22.595587-18.296426 40.991994-40.991994 40.991993-22.595587 0-40.991994-18.296426-40.991994-40.991993l-40.991994-331.435267c0-45.191174 36.692833-81.884007 81.884008-81.884007s81.884007 36.692833 81.884007 81.884007L552.991994 627.877368z" fill="#1afa29" p-id="2050"></path></svg>