<?xml version="1.0" standalone="no"?><!DOCTYPE svg PUBLIC "-//W3C//DTD SVG 1.1//EN" "http://www.w3.org/Graphics/SVG/1.1/DTD/svg11.dtd"><svg t="1536741043791" class="icon" style="" viewBox="0 0 1024 1024" version="1.1" xmlns="http://www.w3.org/2000/svg" p-id="1041" xmlns:xlink="http://www.w3.org/1999/xlink" width="200" height="200"><defs><style type="text/css"></style></defs><path d="M512 0c-70.5536 0-137.0368 13.312-199.3728 39.9872-62.3616 26.6752-116.736 63.1808-163.072 109.568-46.3872 46.336-82.8928 100.7104-109.568 163.072C13.3376 374.9632 0 441.4464 0 512c0 70.5536 13.312 137.0368 39.9872 199.3728 26.6752 62.3616 63.1808 116.736 109.568 163.072 46.336 46.3872 100.7104 82.8928 163.072 109.568C374.9632 1010.6624 441.4464 1024 512 1024c70.5536 0 137.0368-13.312 199.3728-39.9872 62.3616-26.6752 116.736-63.1808 163.072-109.568 46.3872-46.336 82.8928-100.7104 109.568-163.072C1010.6624 649.0368 1024 582.5536 1024 512c0-70.5536-13.312-137.0368-39.9872-199.3728-26.6752-62.3616-63.1808-116.736-109.568-163.072-46.336-46.3872-100.7104-82.8928-163.072-109.568C649.0368 13.3376 582.5536 0 512 0z m0 802.4576a56.96 56.96 0 0 1-41.856-17.2288 56.96 56.96 0 0 1-17.2288-41.856c0-16.384 5.76-30.336 17.2288-41.8304A56.96 56.96 0 0 1 512 684.288c16.4096 0 30.3616 5.7344 41.856 17.2288 11.4688 11.4944 17.2288 25.4208 17.2288 41.8304 0 16.4096-5.76 30.3616-17.2288 41.856a56.96 56.96 0 0 1-41.856 17.2288z m59.0848-256c0 16.4096-5.76 30.3616-17.2288 41.856a56.96 56.96 0 0 1-41.856 17.2288 56.96 56.96 0 0 1-41.856-17.2288 56.96 56.96 0 0 1-17.2288-41.856v-275.712c0-16.384 5.76-30.336 17.2288-41.8304A56.96 56.96 0 0 1 512 211.712c16.4096 0 30.3616 5.76 41.856 17.2288 11.4688 11.4944 17.2288 25.4464 17.2288 41.856v275.712z" fill="#F7BA2A" p-id="1042"></path></svg>